# xmcd CD database file
#
# Track frame offsets:
#	150
#	13593
#	21932
#	37500
#	50835
#	68946
#	80778
#	96836
#	112549
#	131125
#	141648
#	157918
#	170130
#	176919
#
# Disc length: 2542 seconds
#
# Revision: 0
# Processed by: cddbd v1.5.1PL0 Copyright (c) Steve Scherf et al.
# Submitted via: Feurio! 1.68 - http://www.feurio.com
#
DISCID=c009ec0e
DTITLE=Garth Brooks  - The Magic of Christmas
DYEAR=1900
DGENRE=
TTITLE0=It´s The Most Wonderful Time Of The Year
TTITLE1=Let It Snow
TTITLE2=The Christmas Song
TTITLE3=White Christmas
TTITLE4=Baby Jesus Is Born
TTITLE5=God Rest Ye Merry Gentlemen
TTITLE6=Winter Wonderland
TTITLE7=Sleigh Ride
TTITLE8=Have Yourself A Merry Little Christmas
TTITLE9=(There´s No Place Like) Home For The Holidays
TTITLE10=Silver Bells
TTITLE11=Go Tell It To The Mountain
TTITLE12=The Wise Men´s Journey
TTITLE13=O Little Town Of Bethlehem
EXTD=
EXTT0=
EXTT1=
EXTT2=
EXTT3=
EXTT4=
EXTT5=
EXTT6=
EXTT7=
EXTT8=
EXTT9=
EXTT10=
EXTT11=
EXTT12=
EXTT13=
PLAYORDER=
